# xmcd CD database file
#
# Track frame offsets:
#	150
#	23169
#	45356
#	69498
#	98444
#	121231
#	145875
#	165604
#	180559
#	221618
#	242832
#	264123
#	278676
#	303677
#
# Disc length: 4438 seconds
#
# Revision: 0
# Processed by: cddbd v1.5.2PL0 Copyright (c) Steve Scherf et al.
# Submitted via: CDex 1.51
#
DISCID=b811540e
DTITLE=Umberto Porcaro - Burn the Day Away
DYEAR=2005
DGENRE=Blues
TTITLE0=Nobody but you babe
TTITLE1=Barkin'up the wrong tree
TTITLE2=Poppa Blues
TTITLE3=Blonds brunettes and redheads
TTITLE4=Bad Town
TTITLE5=I think you're jivin'
TTITLE6=Lookin' for trouble
TTITLE7=Rainin' in my heart
TTITLE8=Burn the day away
TTITLE9=Left handed woman
TTITLE10=I just got to know
TTITLE11=Room 102
TTITLE12=Street corner Johnny
TTITLE13=I think you're jivin' - LIVE
EXTD=YEAR: 2005
EXTT0=
EXTT1=
EXTT2=
EXTT3=
EXTT4=
EXTT5=
EXTT6=
EXTT7=
EXTT8=
EXTT9=
EXTT10=
EXTT11=
EXTT12=
EXTT13=
PLAYORDER=
